<svg width="147" height="14" viewBox="0 0 147 14" role="img" aria-label="HoneyBook"><path d="M135.457 5.321c3.796 0 5.533-2.273 6.437-5.321h3.957c-.825 2.617-2.267 5.305-4.34 6.583 2.034 1.12 4.01 3.48 5.011 7.416h-3.934c-.98-3.97-3.311-5.688-7.13-5.688l.009 5.688h-3.936V0h3.934l-.008 5.321Zm-9.332 1.682c0-2.89-1.805-4.11-4.049-4.11-2.243 0-4.071 1.218-4.071 4.11 0 2.891 1.822 4.11 4.071 4.11 2.249 0 4.049-1.219 4.049-4.11Zm-12.155 0c0-4.394 3.495-6.998 8.103-6.998 4.607 0 8.083 2.607 8.083 6.998 0 4.39-3.475 6.997-8.083 6.997-4.609 0-8.103-2.607-8.103-6.997Zm-5.18 0c0-2.89-1.804-4.11-4.052-4.11-2.248 0-4.071 1.218-4.071 4.11 0 2.891 1.822 4.11 4.071 4.11 2.249 0 4.052-1.219 4.052-4.11Zm-12.154 0c.001-4.394 3.495-6.998 8.102-6.998s8.083 2.607 8.083 6.998c0 4.39-3.474 6.997-8.083 6.997s-8.102-2.607-8.102-6.997Z"></path><path fill-rule="evenodd" d="M95.79 9.557c0-1.79-1.229-3.087-2.976-3.636.903-.552 1.44-1.554 1.44-2.617C94.254 1.417 92.623 0 89.741 0h-8.864v14h8.576c4.34 0 6.337-1.848 6.337-4.443ZM84.815 2.753l4.122-.006c1.218 0 1.612.45 1.612.98 0 1.003-2.357 1.983-5.734 2.248V2.753Zm6.339 8.014c.38-.222.648-.481.776-.77.348-.78-.2-1.738-1.073-1.918-.434-.09-1.141-.107-2.111.149l-.355.094c-.955.254-1.822.486-3.568.734v2.182h4.324c.683-.03 1.409-.122 2.007-.471Z" clip-rule="evenodd"></path><path d="M74.119 14h-3.934V8.91L64.442.004h4.34l3.404 5.307 3.41-5.307h4.264L74.119 8.91V14ZM50.992 0h12.48v2.99H54.93v2.333h7.967v2.99H54.93v2.697h8.735V14H50.992V0ZM37.95 14h-3.935V.001h4.896l6.201 8.65V0h3.934v14h-4.167l-6.93-9.654V14Zm-9.319-7.003c0-2.89-1.804-4.11-4.048-4.11-2.244 0-4.071 1.219-4.071 4.11 0 2.892 1.822 4.11 4.07 4.11 2.25 0 4.05-1.218 4.05-4.11Zm-12.154 0C16.477 2.604 19.972 0 24.579 0s8.083 2.607 8.083 6.997c0 4.391-3.474 6.998-8.083 6.998-4.608 0-8.102-2.607-8.102-6.998ZM15.03 0h-3.937v6.117c-3.26-.154-5.667-.787-7.155-1.614V0H0v13.999h3.938v-6.15c2.385.868 4.709 1.31 7.155 1.358v4.792h3.938V0Z"></path></svg>